<svg width="1024" height="1024" viewBox="0 0 240 240" role="img" xmlns="http://www.w3.org/2000/svg" shape-rendering="crispEdges"><title>FILL pixel candles</title><rect x="0" y="0" width="240" height="240" fill="#000000"/><rect x="15" y="150" width="15" height="15" fill="#1FBE3C"/><rect x="15" y="165" width="15" height="15" fill="#1FBE3C"/><rect x="15" y="180" width="15" height="15" fill="#1FBE3C"/><rect x="15" y="195" width="15" height="15" fill="#1FBE3C"/><rect x="30" y="120" width="15" height="15" fill="#5FE074"/><rect x="30" y="135" width="15" height="15" fill="#5FE074"/><rect x="30" y="150" width="15" height="15" fill="#1FBE3C"/><rect x="30" y="165" width="15" height="15" fill="#1FBE3C"/><rect x="30" y="180" width="15" height="15" fill="#1FBE3C"/><rect x="30" y="195" width="15" height="15" fill="#1FBE3C"/><rect x="30" y="210" width="15" height="15" fill="#5FE074"/><rect x="30" y="225" width="15" height="15" fill="#5FE074"/><rect x="45" y="150" width="15" height="15" fill="#1FBE3C"/><rect x="45" y="165" width="15" height="15" fill="#1FBE3C"/><rect x="45" y="180" width="15" height="15" fill="#1FBE3C"/><rect x="45" y="195" width="15" height="15" fill="#1FBE3C"/><rect x="60" y="105" width="15" height="15" fill="#1FBE3C"/><rect x="60" y="120" width="15" height="15" fill="#1FBE3C"/><rect x="60" y="135" width="15" height="15" fill="#1FBE3C"/><rect x="60" y="150" width="15" height="15" fill="#1FBE3C"/><rect x="60" y="165" width="15" height="15" fill="#1FBE3C"/><rect x="75" y="75" width="15" height="15" fill="#5FE074"/><rect x="75" y="90" width="15" height="15" fill="#5FE074"/><rect x="75" y="105" width="15" height="15" fill="#1FBE3C"/><rect x="75" y="120" width="15" height="15" fill="#1FBE3C"/><rect x="75" y="135" width="15" height="15" fill="#1FBE3C"/><rect x="75" y="150" width="15" height="15" fill="#1FBE3C"/><rect x="75" y="165" width="15" height="15" fill="#1FBE3C"/><rect x="75" y="180" width="15" height="15" fill="#5FE074"/><rect x="90" y="105" width="15" height="15" fill="#1FBE3C"/><rect x="90" y="120" width="15" height="15" fill="#1FBE3C"/><rect x="90" y="135" width="15" height="15" fill="#1FBE3C"/><rect x="90" y="150" width="15" height="15" fill="#1FBE3C"/><rect x="90" y="165" width="15" height="15" fill="#1FBE3C"/><rect x="105" y="135" width="15" height="15" fill="#F0455A"/><rect x="105" y="150" width="15" height="15" fill="#F0455A"/><rect x="105" y="165" width="15" height="15" fill="#F0455A"/><rect x="105" y="180" width="15" height="15" fill="#F0455A"/><rect x="120" y="120" width="15" height="15" fill="#F98A97"/><rect x="120" y="135" width="15" height="15" fill="#F0455A"/><rect x="120" y="150" width="15" height="15" fill="#F0455A"/><rect x="120" y="165" width="15" height="15" fill="#F0455A"/><rect x="120" y="180" width="15" height="15" fill="#F0455A"/><rect x="120" y="195" width="15" height="15" fill="#F98A97"/><rect x="135" y="135" width="15" height="15" fill="#F0455A"/><rect x="135" y="150" width="15" height="15" fill="#F0455A"/><rect x="135" y="165" width="15" height="15" fill="#F0455A"/><rect x="135" y="180" width="15" height="15" fill="#F0455A"/><rect x="150" y="60" width="15" height="15" fill="#1FBE3C"/><rect x="150" y="75" width="15" height="15" fill="#1FBE3C"/><rect x="150" y="90" width="15" height="15" fill="#1FBE3C"/><rect x="150" y="105" width="15" height="15" fill="#1FBE3C"/><rect x="150" y="120" width="15" height="15" fill="#1FBE3C"/><rect x="150" y="135" width="15" height="15" fill="#1FBE3C"/><rect x="165" y="45" width="15" height="15" fill="#5FE074"/><rect x="165" y="60" width="15" height="15" fill="#1FBE3C"/><rect x="165" y="75" width="15" height="15" fill="#1FBE3C"/><rect x="165" y="90" width="15" height="15" fill="#1FBE3C"/><rect x="165" y="105" width="15" height="15" fill="#1FBE3C"/><rect x="165" y="120" width="15" height="15" fill="#1FBE3C"/><rect x="165" y="135" width="15" height="15" fill="#1FBE3C"/><rect x="165" y="150" width="15" height="15" fill="#5FE074"/><rect x="180" y="60" width="15" height="15" fill="#1FBE3C"/><rect x="180" y="75" width="15" height="15" fill="#1FBE3C"/><rect x="180" y="90" width="15" height="15" fill="#1FBE3C"/><rect x="180" y="105" width="15" height="15" fill="#1FBE3C"/><rect x="180" y="120" width="15" height="15" fill="#1FBE3C"/><rect x="180" y="135" width="15" height="15" fill="#1FBE3C"/><rect x="195" y="30" width="15" height="15" fill="#1FBE3C"/><rect x="195" y="45" width="15" height="15" fill="#1FBE3C"/><rect x="195" y="60" width="15" height="15" fill="#1FBE3C"/><rect x="195" y="75" width="15" height="15" fill="#1FBE3C"/><rect x="195" y="90" width="15" height="15" fill="#1FBE3C"/><rect x="210" y="15" width="15" height="15" fill="#5FE074"/><rect x="210" y="30" width="15" height="15" fill="#1FBE3C"/><rect x="210" y="45" width="15" height="15" fill="#1FBE3C"/><rect x="210" y="60" width="15" height="15" fill="#1FBE3C"/><rect x="210" y="75" width="15" height="15" fill="#1FBE3C"/><rect x="210" y="90" width="15" height="15" fill="#1FBE3C"/><rect x="210" y="105" width="15" height="15" fill="#5FE074"/><rect x="225" y="30" width="15" height="15" fill="#1FBE3C"/><rect x="225" y="45" width="15" height="15" fill="#1FBE3C"/><rect x="225" y="60" width="15" height="15" fill="#1FBE3C"/><rect x="225" y="75" width="15" height="15" fill="#1FBE3C"/><rect x="225" y="90" width="15" height="15" fill="#1FBE3C"/></svg>