<svg width="1500" height="500" viewBox="0 0 1500 500" xmlns="http://www.w3.org/2000/svg" shape-rendering="crispEdges">
<defs><radialGradient id="glow" cx="0.5" cy="0.4" r="0.5"><stop offset="0" stop-color="#00C805" stop-opacity="0.15"/><stop offset="1" stop-color="#00C805" stop-opacity="0"/></radialGradient></defs>
<rect width="1500" height="500" fill="#05070a"/>
<g opacity="0.055" stroke="#00C805" stroke-width="1"><line x1="0" y1="0" x2="0" y2="500"/><line x1="44" y1="0" x2="44" y2="500"/><line x1="88" y1="0" x2="88" y2="500"/><line x1="132" y1="0" x2="132" y2="500"/><line x1="176" y1="0" x2="176" y2="500"/><line x1="220" y1="0" x2="220" y2="500"/><line x1="264" y1="0" x2="264" y2="500"/><line x1="308" y1="0" x2="308" y2="500"/><line x1="352" y1="0" x2="352" y2="500"/><line x1="396" y1="0" x2="396" y2="500"/><line x1="440" y1="0" x2="440" y2="500"/><line x1="484" y1="0" x2="484" y2="500"/><line x1="528" y1="0" x2="528" y2="500"/><line x1="572" y1="0" x2="572" y2="500"/><line x1="616" y1="0" x2="616" y2="500"/><line x1="660" y1="0" x2="660" y2="500"/><line x1="704" y1="0" x2="704" y2="500"/><line x1="748" y1="0" x2="748" y2="500"/><line x1="792" y1="0" x2="792" y2="500"/><line x1="836" y1="0" x2="836" y2="500"/><line x1="880" y1="0" x2="880" y2="500"/><line x1="924" y1="0" x2="924" y2="500"/><line x1="968" y1="0" x2="968" y2="500"/><line x1="1012" y1="0" x2="1012" y2="500"/><line x1="1056" y1="0" x2="1056" y2="500"/><line x1="1100" y1="0" x2="1100" y2="500"/><line x1="1144" y1="0" x2="1144" y2="500"/><line x1="1188" y1="0" x2="1188" y2="500"/><line x1="1232" y1="0" x2="1232" y2="500"/><line x1="1276" y1="0" x2="1276" y2="500"/><line x1="1320" y1="0" x2="1320" y2="500"/><line x1="1364" y1="0" x2="1364" y2="500"/><line x1="1408" y1="0" x2="1408" y2="500"/><line x1="1452" y1="0" x2="1452" y2="500"/><line x1="1496" y1="0" x2="1496" y2="500"/><line x1="0" y1="0" x2="1500" y2="0"/><line x1="0" y1="44" x2="1500" y2="44"/><line x1="0" y1="88" x2="1500" y2="88"/><line x1="0" y1="132" x2="1500" y2="132"/><line x1="0" y1="176" x2="1500" y2="176"/><line x1="0" y1="220" x2="1500" y2="220"/><line x1="0" y1="264" x2="1500" y2="264"/><line x1="0" y1="308" x2="1500" y2="308"/><line x1="0" y1="352" x2="1500" y2="352"/><line x1="0" y1="396" x2="1500" y2="396"/><line x1="0" y1="440" x2="1500" y2="440"/><line x1="0" y1="484" x2="1500" y2="484"/></g>
<rect width="1500" height="500" fill="url(#glow)"/>
<g opacity="0.34"><rect x="16" y="468" width="16" height="16" fill="#00C805"/><rect x="32" y="468" width="16" height="16" fill="#00C805"/><rect x="48" y="468" width="16" height="16" fill="#00C805"/><rect x="16" y="452" width="16" height="16" fill="#00C805"/><rect x="32" y="452" width="16" height="16" fill="#00C805"/><rect x="48" y="452" width="16" height="16" fill="#00C805"/><rect x="16" y="436" width="16" height="16" fill="#00C805"/><rect x="32" y="436" width="16" height="16" fill="#00C805"/><rect x="48" y="436" width="16" height="16" fill="#00C805"/><rect x="16" y="420" width="16" height="16" fill="#00C805"/><rect x="32" y="420" width="16" height="16" fill="#00C805"/><rect x="48" y="420" width="16" height="16" fill="#00C805"/><rect x="16" y="404" width="16" height="16" fill="#00C805"/><rect x="32" y="404" width="16" height="16" fill="#00C805"/><rect x="48" y="404" width="16" height="16" fill="#00C805"/><rect x="32" y="500" width="16" height="16" fill="#00C805"/><rect x="32" y="484" width="16" height="16" fill="#00C805"/><rect x="32" y="468" width="16" height="16" fill="#00C805"/><rect x="32" y="452" width="16" height="16" fill="#00C805"/><rect x="32" y="436" width="16" height="16" fill="#00C805"/><rect x="32" y="420" width="16" height="16" fill="#00C805"/><rect x="32" y="404" width="16" height="16" fill="#00C805"/><rect x="32" y="388" width="16" height="16" fill="#00C805"/><rect x="32" y="372" width="16" height="16" fill="#00C805"/><rect x="112" y="452" width="16" height="16" fill="#00C805"/><rect x="128" y="452" width="16" height="16" fill="#00C805"/><rect x="144" y="452" width="16" height="16" fill="#00C805"/><rect x="112" y="436" width="16" height="16" fill="#00C805"/><rect x="128" y="436" width="16" height="16" fill="#00C805"/><rect x="144" y="436" width="16" height="16" fill="#00C805"/><rect x="112" y="420" width="16" height="16" fill="#00C805"/><rect x="128" y="420" width="16" height="16" fill="#00C805"/><rect x="144" y="420" width="16" height="16" fill="#00C805"/><rect x="112" y="404" width="16" height="16" fill="#00C805"/><rect x="128" y="404" width="16" height="16" fill="#00C805"/><rect x="144" y="404" width="16" height="16" fill="#00C805"/><rect x="128" y="484" width="16" height="16" fill="#00C805"/><rect x="128" y="468" width="16" height="16" fill="#00C805"/><rect x="128" y="452" width="16" height="16" fill="#00C805"/><rect x="128" y="436" width="16" height="16" fill="#00C805"/><rect x="128" y="420" width="16" height="16" fill="#00C805"/><rect x="128" y="404" width="16" height="16" fill="#00C805"/><rect x="128" y="388" width="16" height="16" fill="#00C805"/><rect x="128" y="372" width="16" height="16" fill="#00C805"/><rect x="208" y="436" width="16" height="16" fill="#F0455A"/><rect x="224" y="436" width="16" height="16" fill="#F0455A"/><rect x="240" y="436" width="16" height="16" fill="#F0455A"/><rect x="208" y="420" width="16" height="16" fill="#F0455A"/><rect x="224" y="420" width="16" height="16" fill="#F0455A"/><rect x="240" y="420" width="16" height="16" fill="#F0455A"/><rect x="208" y="404" width="16" height="16" fill="#F0455A"/><rect x="224" y="404" width="16" height="16" fill="#F0455A"/><rect x="240" y="404" width="16" height="16" fill="#F0455A"/><rect x="208" y="388" width="16" height="16" fill="#F0455A"/><rect x="224" y="388" width="16" height="16" fill="#F0455A"/><rect x="240" y="388" width="16" height="16" fill="#F0455A"/><rect x="208" y="372" width="16" height="16" fill="#F0455A"/><rect x="224" y="372" width="16" height="16" fill="#F0455A"/><rect x="240" y="372" width="16" height="16" fill="#F0455A"/><rect x="224" y="468" width="16" height="16" fill="#F0455A"/><rect x="224" y="452" width="16" height="16" fill="#F0455A"/><rect x="224" y="436" width="16" height="16" fill="#F0455A"/><rect x="224" y="420" width="16" height="16" fill="#F0455A"/><rect x="224" y="404" width="16" height="16" fill="#F0455A"/><rect x="224" y="388" width="16" height="16" fill="#F0455A"/><rect x="224" y="372" width="16" height="16" fill="#F0455A"/><rect x="224" y="356" width="16" height="16" fill="#F0455A"/><rect x="224" y="340" width="16" height="16" fill="#F0455A"/><rect x="304" y="452" width="16" height="16" fill="#00C805"/><rect x="320" y="452" width="16" height="16" fill="#00C805"/><rect x="336" y="452" width="16" height="16" fill="#00C805"/><rect x="304" y="436" width="16" height="16" fill="#00C805"/><rect x="320" y="436" width="16" height="16" fill="#00C805"/><rect x="336" y="436" width="16" height="16" fill="#00C805"/><rect x="304" y="420" width="16" height="16" fill="#00C805"/><rect x="320" y="420" width="16" height="16" fill="#00C805"/><rect x="336" y="420" width="16" height="16" fill="#00C805"/><rect x="304" y="404" width="16" height="16" fill="#00C805"/><rect x="320" y="404" width="16" height="16" fill="#00C805"/><rect x="336" y="404" width="16" height="16" fill="#00C805"/><rect x="320" y="484" width="16" height="16" fill="#00C805"/><rect x="320" y="468" width="16" height="16" fill="#00C805"/><rect x="320" y="452" width="16" height="16" fill="#00C805"/><rect x="320" y="436" width="16" height="16" fill="#00C805"/><rect x="320" y="420" width="16" height="16" fill="#00C805"/><rect x="320" y="404" width="16" height="16" fill="#00C805"/><rect x="320" y="388" width="16" height="16" fill="#00C805"/><rect x="320" y="372" width="16" height="16" fill="#00C805"/><rect x="400" y="436" width="16" height="16" fill="#00C805"/><rect x="416" y="436" width="16" height="16" fill="#00C805"/><rect x="432" y="436" width="16" height="16" fill="#00C805"/><rect x="400" y="420" width="16" height="16" fill="#00C805"/><rect x="416" y="420" width="16" height="16" fill="#00C805"/><rect x="432" y="420" width="16" height="16" fill="#00C805"/><rect x="400" y="404" width="16" height="16" fill="#00C805"/><rect x="416" y="404" width="16" height="16" fill="#00C805"/><rect x="432" y="404" width="16" height="16" fill="#00C805"/><rect x="400" y="388" width="16" height="16" fill="#00C805"/><rect x="416" y="388" width="16" height="16" fill="#00C805"/><rect x="432" y="388" width="16" height="16" fill="#00C805"/><rect x="400" y="372" width="16" height="16" fill="#00C805"/><rect x="416" y="372" width="16" height="16" fill="#00C805"/><rect x="432" y="372" width="16" height="16" fill="#00C805"/><rect x="416" y="468" width="16" height="16" fill="#00C805"/><rect x="416" y="452" width="16" height="16" fill="#00C805"/><rect x="416" y="436" width="16" height="16" fill="#00C805"/><rect x="416" y="420" width="16" height="16" fill="#00C805"/><rect x="416" y="404" width="16" height="16" fill="#00C805"/><rect x="416" y="388" width="16" height="16" fill="#00C805"/><rect x="416" y="372" width="16" height="16" fill="#00C805"/><rect x="416" y="356" width="16" height="16" fill="#00C805"/><rect x="416" y="340" width="16" height="16" fill="#00C805"/><rect x="496" y="436" width="16" height="16" fill="#00C805"/><rect x="512" y="436" width="16" height="16" fill="#00C805"/><rect x="528" y="436" width="16" height="16" fill="#00C805"/><rect x="496" y="420" width="16" height="16" fill="#00C805"/><rect x="512" y="420" width="16" height="16" fill="#00C805"/><rect x="528" y="420" width="16" height="16" fill="#00C805"/><rect x="496" y="404" width="16" height="16" fill="#00C805"/><rect x="512" y="404" width="16" height="16" fill="#00C805"/><rect x="528" y="404" width="16" height="16" fill="#00C805"/><rect x="496" y="388" width="16" height="16" fill="#00C805"/><rect x="512" y="388" width="16" height="16" fill="#00C805"/><rect x="528" y="388" width="16" height="16" fill="#00C805"/><rect x="512" y="468" width="16" height="16" fill="#00C805"/><rect x="512" y="452" width="16" height="16" fill="#00C805"/><rect x="512" y="436" width="16" height="16" fill="#00C805"/><rect x="512" y="420" width="16" height="16" fill="#00C805"/><rect x="512" y="404" width="16" height="16" fill="#00C805"/><rect x="512" y="388" width="16" height="16" fill="#00C805"/><rect x="512" y="372" width="16" height="16" fill="#00C805"/><rect x="512" y="356" width="16" height="16" fill="#00C805"/><rect x="592" y="420" width="16" height="16" fill="#F0455A"/><rect x="608" y="420" width="16" height="16" fill="#F0455A"/><rect x="624" y="420" width="16" height="16" fill="#F0455A"/><rect x="592" y="404" width="16" height="16" fill="#F0455A"/><rect x="608" y="404" width="16" height="16" fill="#F0455A"/><rect x="624" y="404" width="16" height="16" fill="#F0455A"/><rect x="592" y="388" width="16" height="16" fill="#F0455A"/><rect x="608" y="388" width="16" height="16" fill="#F0455A"/><rect x="624" y="388" width="16" height="16" fill="#F0455A"/><rect x="592" y="372" width="16" height="16" fill="#F0455A"/><rect x="608" y="372" width="16" height="16" fill="#F0455A"/><rect x="624" y="372" width="16" height="16" fill="#F0455A"/><rect x="592" y="356" width="16" height="16" fill="#F0455A"/><rect x="608" y="356" width="16" height="16" fill="#F0455A"/><rect x="624" y="356" width="16" height="16" fill="#F0455A"/><rect x="608" y="452" width="16" height="16" fill="#F0455A"/><rect x="608" y="436" width="16" height="16" fill="#F0455A"/><rect x="608" y="420" width="16" height="16" fill="#F0455A"/><rect x="608" y="404" width="16" height="16" fill="#F0455A"/><rect x="608" y="388" width="16" height="16" fill="#F0455A"/><rect x="608" y="372" width="16" height="16" fill="#F0455A"/><rect x="608" y="356" width="16" height="16" fill="#F0455A"/><rect x="608" y="340" width="16" height="16" fill="#F0455A"/><rect x="608" y="324" width="16" height="16" fill="#F0455A"/><rect x="688" y="436" width="16" height="16" fill="#00C805"/><rect x="704" y="436" width="16" height="16" fill="#00C805"/><rect x="720" y="436" width="16" height="16" fill="#00C805"/><rect x="688" y="420" width="16" height="16" fill="#00C805"/><rect x="704" y="420" width="16" height="16" fill="#00C805"/><rect x="720" y="420" width="16" height="16" fill="#00C805"/><rect x="688" y="404" width="16" height="16" fill="#00C805"/><rect x="704" y="404" width="16" height="16" fill="#00C805"/><rect x="720" y="404" width="16" height="16" fill="#00C805"/><rect x="688" y="388" width="16" height="16" fill="#00C805"/><rect x="704" y="388" width="16" height="16" fill="#00C805"/><rect x="720" y="388" width="16" height="16" fill="#00C805"/><rect x="704" y="468" width="16" height="16" fill="#00C805"/><rect x="704" y="452" width="16" height="16" fill="#00C805"/><rect x="704" y="436" width="16" height="16" fill="#00C805"/><rect x="704" y="420" width="16" height="16" fill="#00C805"/><rect x="704" y="404" width="16" height="16" fill="#00C805"/><rect x="704" y="388" width="16" height="16" fill="#00C805"/><rect x="704" y="372" width="16" height="16" fill="#00C805"/><rect x="704" y="356" width="16" height="16" fill="#00C805"/><rect x="784" y="420" width="16" height="16" fill="#00C805"/><rect x="800" y="420" width="16" height="16" fill="#00C805"/><rect x="816" y="420" width="16" height="16" fill="#00C805"/><rect x="784" y="404" width="16" height="16" fill="#00C805"/><rect x="800" y="404" width="16" height="16" fill="#00C805"/><rect x="816" y="404" width="16" height="16" fill="#00C805"/><rect x="784" y="388" width="16" height="16" fill="#00C805"/><rect x="800" y="388" width="16" height="16" fill="#00C805"/><rect x="816" y="388" width="16" height="16" fill="#00C805"/><rect x="784" y="372" width="16" height="16" fill="#00C805"/><rect x="800" y="372" width="16" height="16" fill="#00C805"/><rect x="816" y="372" width="16" height="16" fill="#00C805"/><rect x="784" y="356" width="16" height="16" fill="#00C805"/><rect x="800" y="356" width="16" height="16" fill="#00C805"/><rect x="816" y="356" width="16" height="16" fill="#00C805"/><rect x="800" y="452" width="16" height="16" fill="#00C805"/><rect x="800" y="436" width="16" height="16" fill="#00C805"/><rect x="800" y="420" width="16" height="16" fill="#00C805"/><rect x="800" y="404" width="16" height="16" fill="#00C805"/><rect x="800" y="388" width="16" height="16" fill="#00C805"/><rect x="800" y="372" width="16" height="16" fill="#00C805"/><rect x="800" y="356" width="16" height="16" fill="#00C805"/><rect x="800" y="340" width="16" height="16" fill="#00C805"/><rect x="800" y="324" width="16" height="16" fill="#00C805"/><rect x="880" y="404" width="16" height="16" fill="#00C805"/><rect x="896" y="404" width="16" height="16" fill="#00C805"/><rect x="912" y="404" width="16" height="16" fill="#00C805"/><rect x="880" y="388" width="16" height="16" fill="#00C805"/><rect x="896" y="388" width="16" height="16" fill="#00C805"/><rect x="912" y="388" width="16" height="16" fill="#00C805"/><rect x="880" y="372" width="16" height="16" fill="#00C805"/><rect x="896" y="372" width="16" height="16" fill="#00C805"/><rect x="912" y="372" width="16" height="16" fill="#00C805"/><rect x="880" y="356" width="16" height="16" fill="#00C805"/><rect x="896" y="356" width="16" height="16" fill="#00C805"/><rect x="912" y="356" width="16" height="16" fill="#00C805"/><rect x="896" y="436" width="16" height="16" fill="#00C805"/><rect x="896" y="420" width="16" height="16" fill="#00C805"/><rect x="896" y="404" width="16" height="16" fill="#00C805"/><rect x="896" y="388" width="16" height="16" fill="#00C805"/><rect x="896" y="372" width="16" height="16" fill="#00C805"/><rect x="896" y="356" width="16" height="16" fill="#00C805"/><rect x="896" y="340" width="16" height="16" fill="#00C805"/><rect x="896" y="324" width="16" height="16" fill="#00C805"/><rect x="976" y="404" width="16" height="16" fill="#F0455A"/><rect x="992" y="404" width="16" height="16" fill="#F0455A"/><rect x="1008" y="404" width="16" height="16" fill="#F0455A"/><rect x="976" y="388" width="16" height="16" fill="#F0455A"/><rect x="992" y="388" width="16" height="16" fill="#F0455A"/><rect x="1008" y="388" width="16" height="16" fill="#F0455A"/><rect x="976" y="372" width="16" height="16" fill="#F0455A"/><rect x="992" y="372" width="16" height="16" fill="#F0455A"/><rect x="1008" y="372" width="16" height="16" fill="#F0455A"/><rect x="976" y="356" width="16" height="16" fill="#F0455A"/><rect x="992" y="356" width="16" height="16" fill="#F0455A"/><rect x="1008" y="356" width="16" height="16" fill="#F0455A"/><rect x="976" y="340" width="16" height="16" fill="#F0455A"/><rect x="992" y="340" width="16" height="16" fill="#F0455A"/><rect x="1008" y="340" width="16" height="16" fill="#F0455A"/><rect x="992" y="436" width="16" height="16" fill="#F0455A"/><rect x="992" y="420" width="16" height="16" fill="#F0455A"/><rect x="992" y="404" width="16" height="16" fill="#F0455A"/><rect x="992" y="388" width="16" height="16" fill="#F0455A"/><rect x="992" y="372" width="16" height="16" fill="#F0455A"/><rect x="992" y="356" width="16" height="16" fill="#F0455A"/><rect x="992" y="340" width="16" height="16" fill="#F0455A"/><rect x="992" y="324" width="16" height="16" fill="#F0455A"/><rect x="992" y="308" width="16" height="16" fill="#F0455A"/><rect x="1072" y="404" width="16" height="16" fill="#00C805"/><rect x="1088" y="404" width="16" height="16" fill="#00C805"/><rect x="1104" y="404" width="16" height="16" fill="#00C805"/><rect x="1072" y="388" width="16" height="16" fill="#00C805"/><rect x="1088" y="388" width="16" height="16" fill="#00C805"/><rect x="1104" y="388" width="16" height="16" fill="#00C805"/><rect x="1072" y="372" width="16" height="16" fill="#00C805"/><rect x="1088" y="372" width="16" height="16" fill="#00C805"/><rect x="1104" y="372" width="16" height="16" fill="#00C805"/><rect x="1072" y="356" width="16" height="16" fill="#00C805"/><rect x="1088" y="356" width="16" height="16" fill="#00C805"/><rect x="1104" y="356" width="16" height="16" fill="#00C805"/><rect x="1088" y="436" width="16" height="16" fill="#00C805"/><rect x="1088" y="420" width="16" height="16" fill="#00C805"/><rect x="1088" y="404" width="16" height="16" fill="#00C805"/><rect x="1088" y="388" width="16" height="16" fill="#00C805"/><rect x="1088" y="372" width="16" height="16" fill="#00C805"/><rect x="1088" y="356" width="16" height="16" fill="#00C805"/><rect x="1088" y="340" width="16" height="16" fill="#00C805"/><rect x="1088" y="324" width="16" height="16" fill="#00C805"/><rect x="1168" y="404" width="16" height="16" fill="#00C805"/><rect x="1184" y="404" width="16" height="16" fill="#00C805"/><rect x="1200" y="404" width="16" height="16" fill="#00C805"/><rect x="1168" y="388" width="16" height="16" fill="#00C805"/><rect x="1184" y="388" width="16" height="16" fill="#00C805"/><rect x="1200" y="388" width="16" height="16" fill="#00C805"/><rect x="1168" y="372" width="16" height="16" fill="#00C805"/><rect x="1184" y="372" width="16" height="16" fill="#00C805"/><rect x="1200" y="372" width="16" height="16" fill="#00C805"/><rect x="1168" y="356" width="16" height="16" fill="#00C805"/><rect x="1184" y="356" width="16" height="16" fill="#00C805"/><rect x="1200" y="356" width="16" height="16" fill="#00C805"/><rect x="1168" y="340" width="16" height="16" fill="#00C805"/><rect x="1184" y="340" width="16" height="16" fill="#00C805"/><rect x="1200" y="340" width="16" height="16" fill="#00C805"/><rect x="1184" y="436" width="16" height="16" fill="#00C805"/><rect x="1184" y="420" width="16" height="16" fill="#00C805"/><rect x="1184" y="404" width="16" height="16" fill="#00C805"/><rect x="1184" y="388" width="16" height="16" fill="#00C805"/><rect x="1184" y="372" width="16" height="16" fill="#00C805"/><rect x="1184" y="356" width="16" height="16" fill="#00C805"/><rect x="1184" y="340" width="16" height="16" fill="#00C805"/><rect x="1184" y="324" width="16" height="16" fill="#00C805"/><rect x="1184" y="308" width="16" height="16" fill="#00C805"/><rect x="1264" y="388" width="16" height="16" fill="#00C805"/><rect x="1280" y="388" width="16" height="16" fill="#00C805"/><rect x="1296" y="388" width="16" height="16" fill="#00C805"/><rect x="1264" y="372" width="16" height="16" fill="#00C805"/><rect x="1280" y="372" width="16" height="16" fill="#00C805"/><rect x="1296" y="372" width="16" height="16" fill="#00C805"/><rect x="1264" y="356" width="16" height="16" fill="#00C805"/><rect x="1280" y="356" width="16" height="16" fill="#00C805"/><rect x="1296" y="356" width="16" height="16" fill="#00C805"/><rect x="1264" y="340" width="16" height="16" fill="#00C805"/><rect x="1280" y="340" width="16" height="16" fill="#00C805"/><rect x="1296" y="340" width="16" height="16" fill="#00C805"/><rect x="1280" y="420" width="16" height="16" fill="#00C805"/><rect x="1280" y="404" width="16" height="16" fill="#00C805"/><rect x="1280" y="388" width="16" height="16" fill="#00C805"/><rect x="1280" y="372" width="16" height="16" fill="#00C805"/><rect x="1280" y="356" width="16" height="16" fill="#00C805"/><rect x="1280" y="340" width="16" height="16" fill="#00C805"/><rect x="1280" y="324" width="16" height="16" fill="#00C805"/><rect x="1280" y="308" width="16" height="16" fill="#00C805"/><rect x="1360" y="372" width="16" height="16" fill="#00C805"/><rect x="1376" y="372" width="16" height="16" fill="#00C805"/><rect x="1392" y="372" width="16" height="16" fill="#00C805"/><rect x="1360" y="356" width="16" height="16" fill="#00C805"/><rect x="1376" y="356" width="16" height="16" fill="#00C805"/><rect x="1392" y="356" width="16" height="16" fill="#00C805"/><rect x="1360" y="340" width="16" height="16" fill="#00C805"/><rect x="1376" y="340" width="16" height="16" fill="#00C805"/><rect x="1392" y="340" width="16" height="16" fill="#00C805"/><rect x="1360" y="324" width="16" height="16" fill="#00C805"/><rect x="1376" y="324" width="16" height="16" fill="#00C805"/><rect x="1392" y="324" width="16" height="16" fill="#00C805"/><rect x="1360" y="308" width="16" height="16" fill="#00C805"/><rect x="1376" y="308" width="16" height="16" fill="#00C805"/><rect x="1392" y="308" width="16" height="16" fill="#00C805"/><rect x="1376" y="404" width="16" height="16" fill="#00C805"/><rect x="1376" y="388" width="16" height="16" fill="#00C805"/><rect x="1376" y="372" width="16" height="16" fill="#00C805"/><rect x="1376" y="356" width="16" height="16" fill="#00C805"/><rect x="1376" y="340" width="16" height="16" fill="#00C805"/><rect x="1376" y="324" width="16" height="16" fill="#00C805"/><rect x="1376" y="308" width="16" height="16" fill="#00C805"/><rect x="1376" y="292" width="16" height="16" fill="#00C805"/><rect x="1376" y="276" width="16" height="16" fill="#00C805"/></g>
<g><rect x="184" y="141" width="26" height="26" fill="#064d13"/><rect x="210" y="141" width="26" height="26" fill="#064d13"/><rect x="236" y="141" width="26" height="26" fill="#064d13"/><rect x="262" y="141" width="26" height="26" fill="#064d13"/><rect x="288" y="141" width="26" height="26" fill="#064d13"/><rect x="184" y="167" width="26" height="26" fill="#064d13"/><rect x="184" y="193" width="26" height="26" fill="#064d13"/><rect x="184" y="219" width="26" height="26" fill="#064d13"/><rect x="210" y="219" width="26" height="26" fill="#064d13"/><rect x="236" y="219" width="26" height="26" fill="#064d13"/><rect x="262" y="219" width="26" height="26" fill="#064d13"/><rect x="184" y="245" width="26" height="26" fill="#064d13"/><rect x="184" y="271" width="26" height="26" fill="#064d13"/><rect x="184" y="297" width="26" height="26" fill="#064d13"/><rect x="340" y="141" width="26" height="26" fill="#064d13"/><rect x="366" y="141" width="26" height="26" fill="#064d13"/><rect x="392" y="141" width="26" height="26" fill="#064d13"/><rect x="418" y="141" width="26" height="26" fill="#064d13"/><rect x="444" y="141" width="26" height="26" fill="#064d13"/><rect x="392" y="167" width="26" height="26" fill="#064d13"/><rect x="392" y="193" width="26" height="26" fill="#064d13"/><rect x="392" y="219" width="26" height="26" fill="#064d13"/><rect x="392" y="245" width="26" height="26" fill="#064d13"/><rect x="392" y="271" width="26" height="26" fill="#064d13"/><rect x="340" y="297" width="26" height="26" fill="#064d13"/><rect x="366" y="297" width="26" height="26" fill="#064d13"/><rect x="392" y="297" width="26" height="26" fill="#064d13"/><rect x="418" y="297" width="26" height="26" fill="#064d13"/><rect x="444" y="297" width="26" height="26" fill="#064d13"/><rect x="496" y="141" width="26" height="26" fill="#064d13"/><rect x="496" y="167" width="26" height="26" fill="#064d13"/><rect x="496" y="193" width="26" height="26" fill="#064d13"/><rect x="496" y="219" width="26" height="26" fill="#064d13"/><rect x="496" y="245" width="26" height="26" fill="#064d13"/><rect x="496" y="271" width="26" height="26" fill="#064d13"/><rect x="496" y="297" width="26" height="26" fill="#064d13"/><rect x="522" y="297" width="26" height="26" fill="#064d13"/><rect x="548" y="297" width="26" height="26" fill="#064d13"/><rect x="574" y="297" width="26" height="26" fill="#064d13"/><rect x="600" y="297" width="26" height="26" fill="#064d13"/><rect x="652" y="141" width="26" height="26" fill="#064d13"/><rect x="652" y="167" width="26" height="26" fill="#064d13"/><rect x="652" y="193" width="26" height="26" fill="#064d13"/><rect x="652" y="219" width="26" height="26" fill="#064d13"/><rect x="652" y="245" width="26" height="26" fill="#064d13"/><rect x="652" y="271" width="26" height="26" fill="#064d13"/><rect x="652" y="297" width="26" height="26" fill="#064d13"/><rect x="678" y="297" width="26" height="26" fill="#064d13"/><rect x="704" y="297" width="26" height="26" fill="#064d13"/><rect x="730" y="297" width="26" height="26" fill="#064d13"/><rect x="756" y="297" width="26" height="26" fill="#064d13"/><rect x="808" y="271" width="26" height="26" fill="#064d13"/><rect x="834" y="271" width="26" height="26" fill="#064d13"/><rect x="808" y="297" width="26" height="26" fill="#064d13"/><rect x="834" y="297" width="26" height="26" fill="#064d13"/><rect x="886" y="141" width="26" height="26" fill="#064d13"/><rect x="912" y="141" width="26" height="26" fill="#064d13"/><rect x="938" y="141" width="26" height="26" fill="#064d13"/><rect x="964" y="141" width="26" height="26" fill="#064d13"/><rect x="990" y="141" width="26" height="26" fill="#064d13"/><rect x="886" y="167" width="26" height="26" fill="#064d13"/><rect x="886" y="193" width="26" height="26" fill="#064d13"/><rect x="886" y="219" width="26" height="26" fill="#064d13"/><rect x="912" y="219" width="26" height="26" fill="#064d13"/><rect x="938" y="219" width="26" height="26" fill="#064d13"/><rect x="964" y="219" width="26" height="26" fill="#064d13"/><rect x="886" y="245" width="26" height="26" fill="#064d13"/><rect x="886" y="271" width="26" height="26" fill="#064d13"/><rect x="886" y="297" width="26" height="26" fill="#064d13"/><rect x="1042" y="141" width="26" height="26" fill="#064d13"/><rect x="1146" y="141" width="26" height="26" fill="#064d13"/><rect x="1042" y="167" width="26" height="26" fill="#064d13"/><rect x="1146" y="167" width="26" height="26" fill="#064d13"/><rect x="1042" y="193" width="26" height="26" fill="#064d13"/><rect x="1146" y="193" width="26" height="26" fill="#064d13"/><rect x="1042" y="219" width="26" height="26" fill="#064d13"/><rect x="1146" y="219" width="26" height="26" fill="#064d13"/><rect x="1042" y="245" width="26" height="26" fill="#064d13"/><rect x="1146" y="245" width="26" height="26" fill="#064d13"/><rect x="1042" y="271" width="26" height="26" fill="#064d13"/><rect x="1146" y="271" width="26" height="26" fill="#064d13"/><rect x="1068" y="297" width="26" height="26" fill="#064d13"/><rect x="1094" y="297" width="26" height="26" fill="#064d13"/><rect x="1120" y="297" width="26" height="26" fill="#064d13"/><rect x="1198" y="141" width="26" height="26" fill="#064d13"/><rect x="1302" y="141" width="26" height="26" fill="#064d13"/><rect x="1198" y="167" width="26" height="26" fill="#064d13"/><rect x="1224" y="167" width="26" height="26" fill="#064d13"/><rect x="1302" y="167" width="26" height="26" fill="#064d13"/><rect x="1198" y="193" width="26" height="26" fill="#064d13"/><rect x="1250" y="193" width="26" height="26" fill="#064d13"/><rect x="1302" y="193" width="26" height="26" fill="#064d13"/><rect x="1198" y="219" width="26" height="26" fill="#064d13"/><rect x="1276" y="219" width="26" height="26" fill="#064d13"/><rect x="1302" y="219" width="26" height="26" fill="#064d13"/><rect x="1198" y="245" width="26" height="26" fill="#064d13"/><rect x="1302" y="245" width="26" height="26" fill="#064d13"/><rect x="1198" y="271" width="26" height="26" fill="#064d13"/><rect x="1302" y="271" width="26" height="26" fill="#064d13"/><rect x="1198" y="297" width="26" height="26" fill="#064d13"/><rect x="1302" y="297" width="26" height="26" fill="#064d13"/><rect x="178" y="135" width="26" height="26" fill="#00C805"/><rect x="204" y="135" width="26" height="26" fill="#00C805"/><rect x="230" y="135" width="26" height="26" fill="#00C805"/><rect x="256" y="135" width="26" height="26" fill="#00C805"/><rect x="282" y="135" width="26" height="26" fill="#00C805"/><rect x="178" y="161" width="26" height="26" fill="#00C805"/><rect x="178" y="187" width="26" height="26" fill="#00C805"/><rect x="178" y="213" width="26" height="26" fill="#00C805"/><rect x="204" y="213" width="26" height="26" fill="#00C805"/><rect x="230" y="213" width="26" height="26" fill="#00C805"/><rect x="256" y="213" width="26" height="26" fill="#00C805"/><rect x="178" y="239" width="26" height="26" fill="#00C805"/><rect x="178" y="265" width="26" height="26" fill="#00C805"/><rect x="178" y="291" width="26" height="26" fill="#00C805"/><rect x="334" y="135" width="26" height="26" fill="#00C805"/><rect x="360" y="135" width="26" height="26" fill="#00C805"/><rect x="386" y="135" width="26" height="26" fill="#00C805"/><rect x="412" y="135" width="26" height="26" fill="#00C805"/><rect x="438" y="135" width="26" height="26" fill="#00C805"/><rect x="386" y="161" width="26" height="26" fill="#00C805"/><rect x="386" y="187" width="26" height="26" fill="#00C805"/><rect x="386" y="213" width="26" height="26" fill="#00C805"/><rect x="386" y="239" width="26" height="26" fill="#00C805"/><rect x="386" y="265" width="26" height="26" fill="#00C805"/><rect x="334" y="291" width="26" height="26" fill="#00C805"/><rect x="360" y="291" width="26" height="26" fill="#00C805"/><rect x="386" y="291" width="26" height="26" fill="#00C805"/><rect x="412" y="291" width="26" height="26" fill="#00C805"/><rect x="438" y="291" width="26" height="26" fill="#00C805"/><rect x="490" y="135" width="26" height="26" fill="#00C805"/><rect x="490" y="161" width="26" height="26" fill="#00C805"/><rect x="490" y="187" width="26" height="26" fill="#00C805"/><rect x="490" y="213" width="26" height="26" fill="#00C805"/><rect x="490" y="239" width="26" height="26" fill="#00C805"/><rect x="490" y="265" width="26" height="26" fill="#00C805"/><rect x="490" y="291" width="26" height="26" fill="#00C805"/><rect x="516" y="291" width="26" height="26" fill="#00C805"/><rect x="542" y="291" width="26" height="26" fill="#00C805"/><rect x="568" y="291" width="26" height="26" fill="#00C805"/><rect x="594" y="291" width="26" height="26" fill="#00C805"/><rect x="646" y="135" width="26" height="26" fill="#00C805"/><rect x="646" y="161" width="26" height="26" fill="#00C805"/><rect x="646" y="187" width="26" height="26" fill="#00C805"/><rect x="646" y="213" width="26" height="26" fill="#00C805"/><rect x="646" y="239" width="26" height="26" fill="#00C805"/><rect x="646" y="265" width="26" height="26" fill="#00C805"/><rect x="646" y="291" width="26" height="26" fill="#00C805"/><rect x="672" y="291" width="26" height="26" fill="#00C805"/><rect x="698" y="291" width="26" height="26" fill="#00C805"/><rect x="724" y="291" width="26" height="26" fill="#00C805"/><rect x="750" y="291" width="26" height="26" fill="#00C805"/><rect x="802" y="265" width="26" height="26" fill="#00C805"/><rect x="828" y="265" width="26" height="26" fill="#00C805"/><rect x="802" y="291" width="26" height="26" fill="#00C805"/><rect x="828" y="291" width="26" height="26" fill="#00C805"/><rect x="880" y="135" width="26" height="26" fill="#00C805"/><rect x="906" y="135" width="26" height="26" fill="#00C805"/><rect x="932" y="135" width="26" height="26" fill="#00C805"/><rect x="958" y="135" width="26" height="26" fill="#00C805"/><rect x="984" y="135" width="26" height="26" fill="#00C805"/><rect x="880" y="161" width="26" height="26" fill="#00C805"/><rect x="880" y="187" width="26" height="26" fill="#00C805"/><rect x="880" y="213" width="26" height="26" fill="#00C805"/><rect x="906" y="213" width="26" height="26" fill="#00C805"/><rect x="932" y="213" width="26" height="26" fill="#00C805"/><rect x="958" y="213" width="26" height="26" fill="#00C805"/><rect x="880" y="239" width="26" height="26" fill="#00C805"/><rect x="880" y="265" width="26" height="26" fill="#00C805"/><rect x="880" y="291" width="26" height="26" fill="#00C805"/><rect x="1036" y="135" width="26" height="26" fill="#00C805"/><rect x="1140" y="135" width="26" height="26" fill="#00C805"/><rect x="1036" y="161" width="26" height="26" fill="#00C805"/><rect x="1140" y="161" width="26" height="26" fill="#00C805"/><rect x="1036" y="187" width="26" height="26" fill="#00C805"/><rect x="1140" y="187" width="26" height="26" fill="#00C805"/><rect x="1036" y="213" width="26" height="26" fill="#00C805"/><rect x="1140" y="213" width="26" height="26" fill="#00C805"/><rect x="1036" y="239" width="26" height="26" fill="#00C805"/><rect x="1140" y="239" width="26" height="26" fill="#00C805"/><rect x="1036" y="265" width="26" height="26" fill="#00C805"/><rect x="1140" y="265" width="26" height="26" fill="#00C805"/><rect x="1062" y="291" width="26" height="26" fill="#00C805"/><rect x="1088" y="291" width="26" height="26" fill="#00C805"/><rect x="1114" y="291" width="26" height="26" fill="#00C805"/><rect x="1192" y="135" width="26" height="26" fill="#00C805"/><rect x="1296" y="135" width="26" height="26" fill="#00C805"/><rect x="1192" y="161" width="26" height="26" fill="#00C805"/><rect x="1218" y="161" width="26" height="26" fill="#00C805"/><rect x="1296" y="161" width="26" height="26" fill="#00C805"/><rect x="1192" y="187" width="26" height="26" fill="#00C805"/><rect x="1244" y="187" width="26" height="26" fill="#00C805"/><rect x="1296" y="187" width="26" height="26" fill="#00C805"/><rect x="1192" y="213" width="26" height="26" fill="#00C805"/><rect x="1270" y="213" width="26" height="26" fill="#00C805"/><rect x="1296" y="213" width="26" height="26" fill="#00C805"/><rect x="1192" y="239" width="26" height="26" fill="#00C805"/><rect x="1296" y="239" width="26" height="26" fill="#00C805"/><rect x="1192" y="265" width="26" height="26" fill="#00C805"/><rect x="1296" y="265" width="26" height="26" fill="#00C805"/><rect x="1192" y="291" width="26" height="26" fill="#00C805"/><rect x="1296" y="291" width="26" height="26" fill="#00C805"/></g>
</svg>